<svg width="40" height="26" viewBox="0 0 40 26" fill="none" xmlns="http://www.w3.org/2000/svg">
<path d="M4.37211 24.5288L14.9721 13.9288L21.4721 20.4288C22.2921 21.2488 23.6121 21.2088 24.3721 20.3488L38.7121 4.20881C39.4121 3.42881 39.3721 2.22881 38.6321 1.46881C37.8321 0.668807 36.4921 0.688807 35.7321 1.54881L22.9521 15.9088L16.3721 9.32881C15.9984 8.9543 15.4911 8.74384 14.9621 8.74384C14.4331 8.74384 13.9258 8.9543 13.5521 9.32881L1.37211 21.5288C0.592109 22.3088 0.592109 23.5688 1.37211 24.3488L1.55211 24.5288C2.33211 25.3088 3.61211 25.3088 4.37211 24.5288Z" fill="#5864FF"/>
</svg>
